Coordinates
version=1
nRows=29
nColumns=22
inDegrees=yes

Units are S.I. units (second, meters, Newtons, ...)
If the header above contains a line with 'inDegrees', this indicates whether rotational values are in degrees (yes) or radians (no).

endheader
time	pelvis_tilt	pelvis_list	pelvis_rotation	pelvis_tx	pelvis_ty	pelvis_tz	hip_flexion_r	hip_adduction_r	hip_rotation_r	knee_angle_r	ankle_angle_r	subtalar_angle_r	hip_flexion_l	hip_adduction_l	hip_rotation_l	knee_angle_l	ankle_angle_l	subtalar_angle_l	lumbar_extension	lumbar_bending	lumbar_rotation
      0.01000000	     -0.98147453	     -4.08854333	     -4.13938748	     -1.41268210	      1.02399065	     -0.44784652	      2.75339867	      6.65402660	      2.84072937	     -9.87121994	      7.61540673	     -5.36346422	      2.61844629	     -3.60301307	    -10.82404577	    -10.94377478	     11.40363775	     -0.73001648	     -9.57186453	      3.11946047	      1.82048969
      0.02000000	     -0.98632016	     -4.09896683	     -4.08938228	     -1.41251312	      1.02398129	     -0.44789981	      2.73172231	      6.66362066	      2.80497606	     -9.83721481	      7.60157691	     -5.37382091	      2.62660711	     -3.61580312	    -10.80042645	    -10.95616742	     11.41379956	     -0.72809499	     -9.55508077	      3.12745874	      1.82636458
      0.03000000	     -0.99188257	     -4.10714685	     -4.02578405	     -1.41232216	      1.02396643	     -0.44797434	      2.72578717	      6.66988583	      2.73615948	     -9.83491622	      7.60080474	     -5.38691190	      2.62483397	     -3.62158679	    -10.73849433	    -10.94459562	     11.42701547	     -0.72258667	     -9.53638094	      3.13451245	      1.81726511
      0.04000000	     -0.99763143	     -4.10668673	     -3.94474836	     -1.41212615	      1.02394844	     -0.44806705	      2.72146780	      6.66702196	      2.66062883	     -9.83588984	      7.61336887	     -5.39960972	      2.63133070	     -3.61789512	    -10.66277069	    -10.94154318	     11.42596830	     -0.71719312	     -9.51824064	      3.13239523	      1.77788256
      0.05000000	     -1.00467652	     -4.10942134	     -3.87467017	     -1.41188304	      1.02392792	     -0.44813888	      2.71185638	      6.66796645	      2.59758541	     -9.83061797	      7.62573648	     -5.40496941	      2.62885340	     -3.61767583	    -10.60155930	    -10.92815353	     11.43030994	     -0.71327789	     -9.49055583	      3.13226408	      1.76810993
      0.06000000	     -1.01091261	     -4.11052659	     -3.82154184	     -1.41162218	      1.02391087	     -0.44817155	      2.69444367	      6.66928525	      2.56887480	     -9.81411524	      7.63610818	     -5.40578911	      2.62355129	     -3.61945042	    -10.58426164	    -10.91837701	     11.43296200	     -0.71156637	     -9.46221795	      3.12724150	      1.78542389
      0.07000000	     -1.00806099	     -4.11439062	     -3.72657131	     -1.41133520	      1.02390403	     -0.44826948	      2.66900613	      6.66963872	      2.47432417	     -9.80421392	      7.65211671	     -5.40710228	      2.60700336	     -3.61652776	    -10.47276477	    -10.89667006	     11.43738799	     -0.70087055	     -9.43667019	      3.13412866	      1.73180876
      0.08000000	     -1.01275057	     -4.11480845	     -3.67639451	     -1.41102668	      1.02389099	     -0.44828611	      2.64368406	      6.67048828	      2.44265002	     -9.78150925	      7.66238148	     -5.40690474	      2.59337401	     -3.61718726	    -10.46145787	    -10.88073086	     11.43978522	     -0.69848671	     -9.39857805	      3.13023107	      1.74328115
      0.09000000	     -1.00015125	     -4.11477455	     -3.59174027	     -1.41071975	      1.02390380	     -0.44834776	      2.60287844	      6.66784402	      2.36577075	     -9.76456496	      7.67504082	     -5.40517006	      2.55871785	     -3.61073351	    -10.36542436	    -10.84951288	     11.43861590	     -0.68448824	     -9.38012580	      3.12987584	      1.69300421
      0.10000000	     -1.00234275	     -4.11364547	     -3.55312589	     -1.41039859	      1.02389668	     -0.44833339	      2.57416316	      6.66767701	      2.33951405	     -9.74285255	      7.68447120	     -5.40465083	      2.53873055	     -3.61115004	    -10.36420551	    -10.83144141	     11.44043229	     -0.68172441	     -9.34067770	      3.12481155	      1.70279743
      0.11000000	     -0.99975298	     -4.11145792	     -3.51257492	     -1.41007271	      1.02389714	     -0.44831372	      2.53880436	      6.66618992	      2.30484240	     -9.71877623	      7.69692816	     -5.40405294	      2.50837925	     -3.60845725	    -10.34131117	    -10.80324929	     11.44272227	     -0.67458239	     -9.30473593	      3.11860469	      1.69974203
      0.12000000	     -0.97238987	     -4.10794854	     -3.45742874	     -1.40978138	      1.02393628	     -0.44829692	      2.48252300	      6.66248546	      2.25194047	     -9.70154436	      7.70858993	     -5.40304233	      2.45424234	     -3.60178616	    -10.27907034	    -10.77235452	     11.43604143	     -0.65498451	     -9.30577676	      3.10651918	      1.67050033
      0.13000000	     -0.97334211	     -4.10857971	     -3.43986773	     -1.40950291	      1.02393043	     -0.44821411	      2.45695024	      6.66757266	      2.23459391	     -9.68425250	      7.71599663	     -5.40328412	      2.43833058	     -3.60815937	    -10.28496771	    -10.76711763	     11.43872326	     -0.65270829	     -9.27371953	      3.09794089	      1.68868809
      0.14000000	     -0.97252133	     -4.11096982	     -3.42836791	     -1.40924030	      1.02392467	     -0.44811192	      2.43295442	      6.67592883	      2.21800135	     -9.67206393	      7.72413557	     -5.40437493	      2.42155494	     -3.61679482	    -10.28320491	    -10.76476402	     11.44479916	     -0.64909548	     -9.24577187	      3.09024863	      1.70400439
      0.15000000	     -0.97053909	     -4.11611317	     -3.42067055	     -1.40899028	      1.02391763	     -0.44800822	      2.40832559	      6.68633035	      2.19838401	     -9.66005213	      7.73363690	     -5.40665641	      2.40747493	     -3.62874433	    -10.27766847	    -10.77002392	     11.45497106	     -0.64421895	     -9.22185762	      3.08738060	      1.72224077
      0.16000000	     -0.96869809	     -4.12400556	     -3.41745172	     -1.40876179	      1.02390714	     -0.44788243	      2.38659510	      6.70132217	      2.17807452	     -9.65033988	      7.74276470	     -5.40950533	      2.39868714	     -3.64563145	    -10.27011119	    -10.78474948	     11.46813913	     -0.63957279	     -9.20296264	      3.08342680	      1.73922536
      0.17000000	     -0.96678097	     -4.12402180	     -3.41767409	     -1.40853965	      1.02389699	     -0.44777440	      2.37399201	      6.70707923	      2.17517535	     -9.65768245	      7.74347504	     -5.40986973	      2.38912223	     -3.65179072	    -10.26639221	    -10.79716337	     11.46979271	     -0.63903435	     -9.18401723	      3.07844099	      1.74123485
      0.18000000	     -0.96500503	     -4.13911758	     -3.41053340	     -1.40831128	      1.02387870	     -0.44766969	      2.34759628	      6.72828134	      2.13945643	     -9.63742193	      7.76432158	     -5.41490766	      2.39211648	     -3.67672168	    -10.24910602	    -10.83519617	     11.50083900	     -0.63455332	     -9.16858029	      3.08716581	      1.77132021
      0.19000000	     -0.96243706	     -4.13877205	     -3.41040066	     -1.40806861	      1.02386679	     -0.44757559	      2.33470831	      6.73256397	      2.13788511	     -9.64807031	      7.76481465	     -5.41537187	      2.38200732	     -3.68169741	    -10.24474029	    -10.84925060	     11.50410658	     -0.63415578	     -9.14927119	      3.08565995	      1.76973757
      0.20000000	     -0.94991657	     -4.16345911	     -3.37893220	     -1.40783244	      1.02384938	     -0.44751997	      2.30410019	      6.76209275	      2.09067481	     -9.64542706	      7.79483282	     -5.42600798	      2.38459252	     -3.71599103	    -10.20725960	    -10.90396021	     11.58390430	     -0.62677149	     -9.14836423	      3.11579130	      1.74302486
      0.21000000	     -0.94829556	     -4.16078972	     -3.37716899	     -1.40756614	      1.02383861	     -0.44742795	      2.29064703	      6.76431465	      2.09025291	     -9.65497388	      7.79485758	     -5.42620290	      2.37396672	     -3.71804581	    -10.20267590	    -10.91682553	     11.58425383	     -0.62661239	     -9.12876093	      3.11357486	      1.74315294
      0.22000000	     -0.94627328	     -4.15795863	     -3.37315157	     -1.40728680	      1.02382662	     -0.44732765	      2.27563433	      6.76667524	      2.08977298	     -9.66348492	      7.79712007	     -5.42662554	      2.36256458	     -3.72076022	    -10.19617588	    -10.93098006	     11.58676579	     -0.62649792	     -9.10906919	      3.11043876	      1.74224507
      0.23000000	     -0.92819985	     -4.15548062	     -3.33144833	     -1.40699685	      1.02382549	     -0.44727038	      2.22266228	      6.76759094	      2.07332745	     -9.63373543	      7.85012945	     -5.43480688	      2.34966999	     -3.72240594	    -10.13236390	    -10.96721497	     11.64078314	     -0.62410426	     -9.10868255	      3.10806799	      1.70360466
      0.24000000	     -0.89204512	     -4.15992421	     -3.28422267	     -1.40668693	      1.02386458	     -0.44723208	      2.16385746	      6.77355008	      2.02423432	     -9.63197690	      7.86133601	     -5.44464218	      2.30050945	     -3.72659921	    -10.06950939	    -10.96980729	     11.65614445	     -0.61843007	     -9.12869779	      3.12097039	      1.64129246
      0.25000000	     -0.87794224	     -4.15623074	     -3.26466526	     -1.40637684	      1.02387295	     -0.44712443	      2.12578317	      6.77586338	      2.03652073	     -9.62581092	      7.87334539	     -5.44847930	      2.27467149	     -3.72851487	    -10.04627311	    -10.98042571	     11.66617089	     -0.61655464	     -9.12223882	      3.11713625	      1.60791708
      0.26000000	     -0.87578253	     -4.15297016	     -3.25747576	     -1.40607268	      1.02386898	     -0.44699090	      2.10969893	      6.78007101	      2.03857993	     -9.63665662	      7.87400080	     -5.44881442	      2.26086704	     -3.73279043	    -10.04135498	    -10.99149954	     11.66674229	     -0.61628274	     -9.10282109	      3.11287550	      1.60438488
      0.27000000	     -0.81973006	     -4.15973226	     -3.19343284	     -1.40574490	      1.02393783	     -0.44693167	      2.00577423	      6.78978761	      2.00347682	     -9.59333790	      7.90495117	     -5.46084588	      2.19473010	     -3.74086560	     -9.94801027	    -11.00203626	     11.69977000	     -0.60187827	     -9.14631474	      3.12334415	      1.52542967
      0.28000000	     -0.80855301	     -4.15643336	     -3.17962259	     -1.40543985	      1.02394832	     -0.44679224	      1.97471515	      6.79454560	      2.01752199	     -9.59571731	      7.91089137	     -5.46346988	      2.16727909	     -3.74476682	     -9.94329437	    -11.00342814	     11.70357697	     -0.59842275	     -9.13980257	      3.12140730	      1.47755113
      0.29000000	     -0.80758413	     -4.15255624	     -3.17487084	     -1.40514919	      1.02394571	     -0.44662268	      1.95832956	      6.79987950	      2.01821636	     -9.60288279	      7.91253212	     -5.46387199	      2.15415256	     -3.75083285	     -9.93841544	    -11.01362753	     11.70424898	     -0.59771018	     -9.12300768	      3.11434003	      1.47264801
